HIERARCHY
ROOT Root
{
  OFFSET 0.0 0.0 0.0
  CHANNELS 6 Xposition Yposition Zposition Zrotation Yrotation Xrotation
  JOINT Hips
  {
    OFFSET 0.0 100.0 0.0
    CHANNELS 6 Xposition Yposition Zposition Zrotation Yrotation Xrotation
    JOINT Spine1
    {
      OFFSET 5.003913 -0.037094 -0.013727
      CHANNELS 3 Zrotation Yrotation Xrotation
      JOINT Spine2
      {
        OFFSET 7.125363 -1e-06 0.0
        CHANNELS 3 Zrotation Yrotation Xrotation
        JOINT Chest
        {
          OFFSET 7.594027 1e-06 0.0
          CHANNELS 3 Zrotation Yrotation Xrotation
          JOINT Neck1
          {
            OFFSET 26.313086 -0.460272 -0.181672
            CHANNELS 3 Zrotation Yrotation Xrotation
            JOINT Neck2
            {
              OFFSET 8.045911 0.0 0.0
              CHANNELS 3 Zrotation Yrotation Xrotation
              JOINT Head
              {
                OFFSET 6.432774 0.0 0.0
                CHANNELS 3 Zrotation Yrotation Xrotation
                JOINT HeadEnd
                {
                  OFFSET 16.169773 0.06451 0.00362
                  CHANNELS 3 Zrotation Yrotation Xrotation
                }
                JOINT Jaw
                {
                  OFFSET 0.108741 3.12938 0.002639
                  CHANNELS 3 Zrotation Yrotation Xrotation
                }
                JOINT LeftEye
                {
                  OFFSET 4.45173 8.166359 3.206392
                  CHANNELS 3 Zrotation Yrotation Xrotation
                }
                JOINT RightEye
                {
                  OFFSET 4.436895 8.135758 -3.222429
                  CHANNELS 3 Zrotation Yrotation Xrotation
                }
              }
            }
          }
          JOINT LeftShoulder
          {
            OFFSET 23.218927 5.195579 1.621656
            CHANNELS 3 Zrotation Yrotation Xrotation
            JOINT LeftArm
            {
              OFFSET 15.902118 2e-06 -2e-06
              CHANNELS 3 Zrotation Yrotation Xrotation
              JOINT LeftForeArm
              {
                OFFSET 28.739307 0.0 -1e-06
                CHANNELS 3 Zrotation Yrotation Xrotation
                JOINT LeftHand
                {
                  OFFSET 27.093981 -4e-06 0.0
                  CHANNELS 3 Zrotation Yrotation Xrotation
                  JOINT LeftHandThumb1
                  {
                    OFFSET 2.276781 3.380274 0.83384
                    CHANNELS 3 Zrotation Yrotation Xrotation
                    JOINT LeftHandThumb2
                    {
                      OFFSET 4.705309 -1e-06 -1e-06
                      CHANNELS 3 Zrotation Yrotation Xrotation
                      JOINT LeftHandThumb3
                      {
                        OFFSET 2.798515 0.0 3e-06
                        CHANNELS 3 Zrotation Yrotation Xrotation
                        JOINT LeftHandThumbEnd
                        {
                          OFFSET 3.180793 4e-06 -4e-06
                          CHANNELS 3 Zrotation Yrotation Xrotation
                        }
                      }
                    }
                  }
                  JOINT LeftHandIndex1
                  {
                    OFFSET 3.247786 2.352677 0.137192
                    CHANNELS 3 Zrotation Yrotation Xrotation
                    JOINT LeftHandIndex2
                    {
                      OFFSET 6.367095 1e-06 0.0
                      CHANNELS 3 Zrotation Yrotation Xrotation
                      JOINT LeftHandIndex3
                      {
                        OFFSET 3.662364 0.0 0.0
                        CHANNELS 3 Zrotation Yrotation Xrotation
                        JOINT LeftHandIndex4
                        {
                          OFFSET 2.329242 4e-06 -4e-06
                          CHANNELS 3 Zrotation Yrotation Xrotation
                          JOINT LeftHandIndexEnd
                          {
                            OFFSET 2.767823 1e-06 0.0
                            CHANNELS 3 Zrotation Yrotation Xrotation
                          }
                        }
                      }
                    }
                  }
                  JOINT LeftHandMiddle1
                  {
                    OFFSET 3.163612 0.945023 -0.406112
                    CHANNELS 3 Zrotation Yrotation Xrotation
                    JOINT LeftHandMiddle2
                    {
                      OFFSET 6.276789 3e-06 0.0
                      CHANNELS 3 Zrotation Yrotation Xrotation
                      JOINT LeftHandMiddle3
                      {
                        OFFSET 4.35652 -1e-06 4e-06
                        CHANNELS 3 Zrotation Yrotation Xrotation
                        JOINT LeftHandMiddle4
                        {
                          OFFSET 2.996877 0.0 8e-06
                          CHANNELS 3 Zrotation Yrotation Xrotation
                          JOINT LeftHandMiddleEnd
                          {
                            OFFSET 2.323256 3e-06 -4e-06
                            CHANNELS 3 Zrotation Yrotation Xrotation
                          }
                        }
                      }
                    }
                  }
                  JOINT LeftHandRing1
                  {
                    OFFSET 2.882606 -0.309162 0.107445
                    CHANNELS 3 Zrotation Yrotation Xrotation
                    JOINT LeftHandRing2
                    {
                      OFFSET 6.033198 0.0 4e-06
                      CHANNELS 3 Zrotation Yrotation Xrotation
                      JOINT LeftHandRing3
                      {
                        OFFSET 4.350578 3e-06 0.0
                        CHANNELS 3 Zrotation Yrotation Xrotation
                        JOINT LeftHandRing4
                        {
                          OFFSET 2.651321 2e-06 -7e-06
                          CHANNELS 3 Zrotation Yrotation Xrotation
                          JOINT LeftHandRingEnd
                          {
                            OFFSET 1.937663 1e-06 -4e-06
                            CHANNELS 3 Zrotation Yrotation Xrotation
                          }
                        }
                      }
                    }
                  }
                  JOINT LeftHandPinky1
                  {
                    OFFSET 2.865315 -1.525436 0.575687
                    CHANNELS 3 Zrotation Yrotation Xrotation
                    JOINT LeftHandPinky2
                    {
                      OFFSET 5.54936 1e-06 -8e-06
                      CHANNELS 3 Zrotation Yrotation Xrotation
                      JOINT LeftHandPinky3
                      {
                        OFFSET 3.070974 0.0 -4e-06
                        CHANNELS 3 Zrotation Yrotation Xrotation
                        JOINT LeftHandPinky4
                        {
                          OFFSET 1.549672 1e-06 0.0
                          CHANNELS 3 Zrotation Yrotation Xrotation
                          JOINT LeftHandPinkyEnd
                          {
                            OFFSET 1.952123 0.0 0.0
                            CHANNELS 3 Zrotation Yrotation Xrotation
                          }
                        }
                      }
                    }
                  }
                }
              }
            }
          }
          JOINT RightShoulder
          {
            OFFSET 23.161716 5.296122 -1.380114
            CHANNELS 3 Zrotation Yrotation Xrotation
            JOINT RightArm
            {
              OFFSET -16.027195 -2e-06 1.1e-05
              CHANNELS 3 Zrotation Yrotation Xrotation
              JOINT RightForeArm
              {
                OFFSET -28.736639 4e-06 2e-06
                CHANNELS 3 Zrotation Yrotation Xrotation
                JOINT RightHand
                {
                  OFFSET -27.133619 6e-06 0.0
                  CHANNELS 3 Zrotation Yrotation Xrotation
                  JOINT RightHandThumb1
                  {
                    OFFSET -2.274328 -3.351035 -0.83067
                    CHANNELS 3 Zrotation Yrotation Xrotation
                    JOINT RightHandThumb2
                    {
                      OFFSET -4.703594 -3e-06 2e-06
                      CHANNELS 3 Zrotation Yrotation Xrotation
                      JOINT RightHandThumb3
                      {
                        OFFSET -2.794935 -4e-06 -3e-06
                        CHANNELS 3 Zrotation Yrotation Xrotation
                        JOINT RightHandThumbEnd
                        {
                          OFFSET -3.183852 4e-06 1e-06
                          CHANNELS 3 Zrotation Yrotation Xrotation
                        }
                      }
                    }
                  }
                  JOINT RightHandIndex1
                  {
                    OFFSET -3.253496 -2.33755 -0.127667
                    CHANNELS 3 Zrotation Yrotation Xrotation
                    JOINT RightHandIndex2
                    {
                      OFFSET -6.344434 0.0 0.0
                      CHANNELS 3 Zrotation Yrotation Xrotation
                      JOINT RightHandIndex3
                      {
                        OFFSET -3.654871 0.0 -8e-06
                        CHANNELS 3 Zrotation Yrotation Xrotation
                        JOINT RightHandIndex4
                        {
                          OFFSET -2.327586 -1e-06 0.0
                          CHANNELS 3 Zrotation Yrotation Xrotation
                          JOINT RightHandIndexEnd
                          {
                            OFFSET -2.770001 3e-06 8e-06
                            CHANNELS 3 Zrotation Yrotation Xrotation
                          }
                        }
                      }
                    }
                  }
                  JOINT RightHandMiddle1
                  {
                    OFFSET -3.168223 -0.944764 0.411762
                    CHANNELS 3 Zrotation Yrotation Xrotation
                    JOINT RightHandMiddle2
                    {
                      OFFSET -6.266691 -1e-06 -4e-06
                      CHANNELS 3 Zrotation Yrotation Xrotation
                      JOINT RightHandMiddle3
                      {
                        OFFSET -4.348901 0.0 0.0
                        CHANNELS 3 Zrotation Yrotation Xrotation
                        JOINT RightHandMiddle4
                        {
                          OFFSET -3.00024 2e-06 -4e-06
                          CHANNELS 3 Zrotation Yrotation Xrotation
                          JOINT RightHandMiddleEnd
                          {
                            OFFSET -2.321477 -4e-06 -4e-06
                            CHANNELS 3 Zrotation Yrotation Xrotation
                          }
                        }
                      }
                    }
                  }
                  JOINT RightHandRing1
                  {
                    OFFSET -2.885654 0.293261 -0.119232
                    CHANNELS 3 Zrotation Yrotation Xrotation
                    JOINT RightHandRing2
                    {
                      OFFSET -6.032835 -1e-06 -4e-06
                      CHANNELS 3 Zrotation Yrotation Xrotation
                      JOINT RightHandRing3
                      {
                        OFFSET -4.33881 0.0 -4e-06
                        CHANNELS 3 Zrotation Yrotation Xrotation
                        JOINT RightHandRing4
                        {
                          OFFSET -2.654903 -4e-06 -4e-06
                          CHANNELS 3 Zrotation Yrotation Xrotation
                          JOINT RightHandRingEnd
                          {
                            OFFSET -1.935122 0.0 4e-06
                            CHANNELS 3 Zrotation Yrotation Xrotation
                          }
                        }
                      }
                    }
                  }
                  JOINT RightHandPinky1
                  {
                    OFFSET -2.866241 1.503904 -0.60527
                    CHANNELS 3 Zrotation Yrotation Xrotation
                    JOINT RightHandPinky2
                    {
                      OFFSET -5.553177 -2e-06 0.0
                      CHANNELS 3 Zrotation Yrotation Xrotation
                      JOINT RightHandPinky3
                      {
                        OFFSET -3.062664 -1e-06 -4e-06
                        CHANNELS 3 Zrotation Yrotation Xrotation
                        JOINT RightHandPinky4
                        {
                          OFFSET -1.546529 2e-06 4e-06
                          CHANNELS 3 Zrotation Yrotation Xrotation
                          JOINT RightHandPinkyEnd
                          {
                            OFFSET -1.952341 0.0 -4e-06
                            CHANNELS 3 Zrotation Yrotation Xrotation
                          }
                        }
                      }
                    }
                  }
                }
              }
            }
          }
        }
      }
    }
    JOINT LeftLeg
    {
      OFFSET -8.443107 2.567604 10.043214
      CHANNELS 3 Zrotation Yrotation Xrotation
      JOINT LeftShin
      {
        OFFSET 43.229198 1e-06 -1e-06
        CHANNELS 3 Zrotation Yrotation Xrotation
        JOINT LeftFoot
        {
          OFFSET 42.298611 1e-06 1e-06
          CHANNELS 3 Zrotation Yrotation Xrotation
          JOINT LeftToeBase
          {
            OFFSET 14.165858 1e-06 0.0
            CHANNELS 3 Zrotation Yrotation Xrotation
            JOINT LeftToeEnd
            {
              OFFSET 6.7141 -0.234461 0.0
              CHANNELS 3 Zrotation Yrotation Xrotation
            }
          }
        }
      }
    }
    JOINT RightLeg
    {
      OFFSET -8.303923 2.592729 -10.047278
      CHANNELS 3 Zrotation Yrotation Xrotation
      JOINT RightShin
      {
        OFFSET -43.369682 0.0 1e-06
        CHANNELS 3 Zrotation Yrotation Xrotation
        JOINT RightFoot
        {
          OFFSET -42.260784 4e-06 2e-06
          CHANNELS 3 Zrotation Yrotation Xrotation
          JOINT RightToeBase
          {
            OFFSET -14.222245 -2e-06 -1e-06
            CHANNELS 3 Zrotation Yrotation Xrotation
            JOINT RightToeEnd
            {
              OFFSET -6.660062 0.232574 -2e-06
              CHANNELS 3 Zrotation Yrotation Xrotation
            }
          }
        }
      }
    }
  }
}
MOTION
Frames: 4
Frame Time: 0.03333333333333333
0.0 0.0 0.0 0.0 -0.0 0.0 0.387697 42.472424 -0.040802 85.914803 -47.44767 96.698753 21.282288 -0.095291 -0.639242 -1.517109 -0.567685 -1.272105 27.133913 0.525998 -3.467818 45.181759 -4.402096 0.13457 -2.784976 -2.005471 1.205558 -37.658165 -4.372581 0.549856 5e-06 1e-06 0.0 -0.195654 0.146198 0.004052 -0.04277 -0.124244 0.209635 -0.226578 0.437199 -0.174758 -63.684555 -76.973732 68.339561 59.441742 15.462741 -41.910854 63.648811 0.447395 1.57579 9.894868 36.312805 34.143158 17.636641 -26.322739 52.411201 -19.46666 -14.3956 29.410389 -1e-06 -8.774822 -2e-06 17.699287 -18.007978 5.688064 -0.609776 -1.795654 -3.889329 -4.80709 -11.046814 -2.93785 4e-06 -20.976019 0.0 -5.019972 -25.033562 -4.031881 6e-06 1e-06 0.0 -10.634537 -5.686968 -3.565588 10.573275 -17.922956 -3.113899 3e-06 -13.82121 2e-06 -0.501777 -31.181507 -4.027015 -11.430908 -60.787632 7.763646 -13.982716 -7.150198 -2.875042 13.772732 -8.401497 -3.218242 0.347733 -34.211559 0.771657 -0.963028 -17.733372 2.621021 0.0 1e-06 -1e-06 -17.34642 -20.095219 -4.201782 21.757561 -1.638376 3.866429 1e-06 -6.338825 2e-06 -1.697588 -22.591753 -6.194007 1e-06 -5e-06 -2e-06 128.518112 -73.575752 54.341042 73.521492 -4.206206 -44.777084 62.123119 -0.636188 0.217101 6.667485 60.900181 26.941458 22.182112 -20.375891 49.933323 -16.701817 -16.743532 28.476536 -4e-06 -12.690602 -1e-06 16.806055 -17.988108 2.657249 -0.105918 -1.513855 -4.275883 -5.039042 -5.612872 -2.953556 6e-06 -11.020524 -4e-06 -6.111296 -15.89533 -3.840473 -0.0 0.0 -0.0 -10.283369 -5.680288 -4.341839 11.028296 -11.302404 -2.372636 -1.384268 -14.238577 -6.320122 -0.625435 -26.924187 -3.827602 -4.875456 -50.584564 -3.338502 -13.708525 -7.363474 -3.720939 18.14115 -14.052739 -3.242676 7e-06 -18.78727 -1e-06 -0.429711 -8.456047 2.555503 1e-06 1e-06 -0.0 -15.923536 -20.094482 -5.473585 30.419218 -7.190825 1.735924 4e-06 -8.162921 -1e-06 -1.861903 -22.861467 -6.16794 0.0 -3e-06 -2e-06 110.838234 -10.371542 12.849878 142.098282 -0.153433 0.099777 -114.857803 16.1742 14.592453 -42.501656 1.962716 1.451945 -1.0 0.0 1e-06 -64.876381 -14.359334 4.643889 142.927887 0.26569 0.503662 -120.895073 14.633425 2.537222 -35.211666 1.070506 1.590547 -1.000003 -0.0 -0.0 
0.0 0.0 0.0 0.0 -0.0 0.0 0.35972 42.412842 -0.274751 85.99836 -47.348679 96.568558 21.336143 -0.087836 -0.633612 -1.484105 -0.582043 -1.337934 27.302961 0.585165 -3.517362 45.224777 -4.303719 0.074745 -2.781193 -1.965146 1.100529 -37.960148 -4.493093 0.626976 6e-06 0.0 0.0 -0.19266 0.133233 -0.000622 -0.045374 -0.152057 0.211419 -0.2228 0.438233 -0.185436 -63.107281 -77.201126 67.723038 58.645847 15.747706 -42.258968 63.930218 0.501232 1.519928 9.528662 36.155365 33.955624 17.636631 -26.322725 52.411194 -19.466652 -14.395592 29.410381 -1e-06 -8.774818 -3e-06 17.6798 -17.951937 5.676198 -0.609778 -1.795653 -3.889326 -4.807087 -11.046811 -2.937851 4e-06 -20.976013 -0.0 -5.019969 -25.033556 -4.031881 7e-06 1e-06 0.0 -10.634532 -5.686967 -3.565588 10.573271 -17.922947 -3.113899 2e-06 -13.821206 1e-06 -0.501776 -31.181505 -4.027017 -11.38881 -60.757977 7.684483 -13.982711 -7.150197 -2.875044 13.772726 -8.401492 -3.21824 0.347733 -34.211544 0.771654 -0.963026 -17.733366 2.621019 0.0 -0.0 -1e-06 -17.346413 -20.095213 -4.201784 21.757555 -1.638375 3.86643 1e-06 -6.33882 1e-06 -1.697587 -22.591742 -6.194007 0.0 -5e-06 -2e-06 128.474106 -73.538643 54.351212 73.524536 -3.562721 -44.676826 62.326569 -0.511994 0.346688 5.654196 60.676319 26.316376 22.182108 -20.375887 49.933296 -16.701807 -16.743526 28.476515 -2e-06 -12.690597 -2e-06 16.746815 -18.010525 2.66157 -0.105919 -1.513855 -4.275878 -5.039039 -5.612868 -2.953554 5e-06 -11.02052 -2e-06 -6.111294 -15.895326 -3.840469 0.0 0.0 2e-06 -10.283365 -5.680286 -4.341836 11.028289 -11.302401 -2.37263 -1.384268 -14.238575 -6.320118 -0.625438 -26.924179 -3.827599 -4.887759 -50.595097 -3.341693 -13.708519 -7.363472 -3.720937 18.141146 -14.052736 -3.242672 6e-06 -18.787264 1e-06 -0.429712 -8.456043 2.555502 1e-06 1e-06 0.0 -15.92353 -20.094475 -5.473582 30.419205 -7.190827 1.735927 3e-06 -8.162921 -0.0 -1.861903 -22.861464 -6.167939 1e-06 -3e-06 -1e-06 110.688377 -10.42666 13.062137 142.37149 -0.095574 0.12761 -114.98111 16.344194 14.678058 -42.58799 1.965566 1.469602 -0.999999 1e-06 -0.0 -65.131516 -14.304004 4.893676 143.224442 0.287848 0.501503 -120.854828 14.707233 2.469839 -35.225319 1.073678 1.58459 -1.000002 -0.0 -0.0 
0.0 0.0 0.0 0.0 -0.0 0.0 0.317688 42.354321 -0.496902 86.082985 -47.195282 96.453651 21.324387 -0.068935 -0.626635 -1.480087 -0.627864 -1.40574 27.483286 0.614085 -3.567945 45.316067 -4.191763 0.051547 -2.791693 -1.922974 0.986937 -38.144886 -4.623076 0.645821 7e-06 1e-06 0.0 -0.19124 0.117357 -0.006934 -0.055677 -0.177145 0.206262 -0.228144 0.431344 -0.193001 -62.207935 -77.43486 66.768471 57.953514 16.050919 -42.355072 63.90403 0.519054 1.451002 9.282946 36.024529 33.791813 17.636637 -26.322718 52.411182 -19.46666 -14.395594 29.410381 0.0 -8.774819 -3e-06 17.666239 -17.926636 5.661384 -0.609777 -1.795652 -3.889326 -4.807088 -11.046811 -2.93785 6e-06 -20.976015 -2e-06 -5.019969 -25.03356 -4.031882 6e-06 0.0 0.0 -10.634533 -5.68697 -3.565588 10.573274 -17.922947 -3.113899 3e-06 -13.821205 0.0 -0.501773 -31.181501 -4.027017 -11.401575 -60.73637 7.642049 -13.982712 -7.150196 -2.875042 13.772728 -8.401494 -3.21824 0.347738 -34.211544 0.771653 -0.963026 -17.733368 2.62102 0.0 0.0 -1e-06 -17.346418 -20.095217 -4.201784 21.757555 -1.638373 3.866431 2e-06 -6.338824 0.0 -1.697585 -22.591745 -6.194008 0.0 -5e-06 -2e-06 128.426712 -73.562004 54.440556 73.612663 -2.870662 -44.548409 62.16238 -0.421318 0.463704 4.749264 60.455521 25.415163 22.182114 -20.375891 49.933308 -16.701809 -16.74353 28.476524 -2e-06 -12.690603 -1e-06 16.686432 -18.052595 2.675665 -0.10592 -1.513856 -4.275879 -5.039041 -5.61287 -2.953555 6e-06 -11.02052 -2e-06 -6.1113 -15.895329 -3.840471 0.0 0.0 -0.0 -10.283371 -5.680288 -4.341837 11.028295 -11.302401 -2.372631 -1.384269 -14.238577 -6.32012 -0.625438 -26.924183 -3.827601 -4.931095 -50.584587 -3.335685 -13.708527 -7.363474 -3.720937 18.141153 -14.052736 -3.242676 5e-06 -18.787266 -1e-06 -0.429712 -8.456041 2.555504 1e-06 2e-06 -1e-06 -15.923539 -20.094479 -5.473583 30.419214 -7.190827 1.735927 2e-06 -8.162921 1e-06 -1.861904 -22.861467 -6.16794 1e-06 -3e-06 -1e-06 110.510025 -10.453925 13.201708 142.617783 -0.059385 0.132886 -114.773186 16.519125 14.765559 -42.530228 1.97453 1.488006 -1.000001 0.0 0.0 -65.373802 -14.197356 5.020846 143.493027 0.30918 0.492342 -120.586075 14.715734 2.544591 -35.066151 1.075674 1.590886 -1.000003 0.0 -0.0 
0.0 0.0 0.0 0.0 -0.0 0.0 0.267916 42.291183 -0.711204 86.153496 -46.977825 96.382103 21.276356 -0.048057 -0.625999 -1.493354 -0.682926 -1.472113 27.657505 0.612559 -3.63452 45.445534 -4.058426 0.076259 -2.809051 -1.904068 0.892079 -38.21484 -4.765159 0.597172 5e-06 1e-06 0.0 -0.190126 0.100443 -0.013136 -0.067084 -0.19769 0.195529 -0.236925 0.418416 -0.195385 -60.995743 -77.669632 65.478394 57.374996 16.349878 -42.256592 63.602551 0.498615 1.360738 9.143922 35.907173 33.584946 17.636629 -26.322731 52.411186 -19.466665 -14.395602 29.410393 1e-06 -8.774822 -2e-06 17.673605 -17.934681 5.631774 -0.609775 -1.795655 -3.889328 -4.807089 -11.046811 -2.93785 5e-06 -20.976017 -0.0 -5.01997 -25.03356 -4.03188 6e-06 1e-06 0.0 -10.634534 -5.68697 -3.565587 10.573275 -17.922953 -3.113902 3e-06 -13.821213 1e-06 -0.501776 -31.181511 -4.027017 -11.438417 -60.726883 7.617839 -13.982713 -7.150198 -2.875042 13.77273 -8.401495 -3.218242 0.347734 -34.211555 0.771654 -0.963027 -17.73337 2.621018 0.0 0.0 -0.0 -17.346418 -20.095219 -4.201781 21.757557 -1.638379 3.866425 1e-06 -6.338822 1e-06 -1.697591 -22.591747 -6.194007 0.0 -5e-06 -2e-06 128.347153 -73.639107 54.613007 73.809708 -2.209217 -44.470211 61.740227 -0.361814 0.538332 4.055922 60.210236 24.401466 22.182119 -20.3759 49.933319 -16.701817 -16.74353 28.476534 -3e-06 -12.690605 -1e-06 16.643379 -18.080208 2.678498 -0.105919 -1.513856 -4.275882 -5.039042 -5.612871 -2.953555 5e-06 -11.020527 -1e-06 -6.111301 -15.895338 -3.840472 0.0 0.0 2e-06 -10.283373 -5.68029 -4.341839 11.028297 -11.302406 -2.372634 -1.38427 -14.238584 -6.320122 -0.62544 -26.924194 -3.8276 -4.992504 -50.552761 -3.313906 -13.708527 -7.363477 -3.720941 18.141153 -14.05274 -3.242675 4e-06 -18.787271 0.0 -0.429712 -8.456047 2.555503 0.0 1e-06 -0.0 -15.923539 -20.094484 -5.473583 30.419218 -7.190827 1.735925 3e-06 -8.162925 -0.0 -1.861904 -22.861479 -6.167943 -0.0 -3e-06 -1e-06 110.437912 -10.500656 13.360319 142.842651 -0.050563 0.115705 -114.637962 16.733665 14.670526 -42.341442 1.981942 1.493036 -0.999998 0.0 -0.0 -65.478661 -14.103867 5.135779 143.730789 0.332037 0.475693 -120.359276 14.741217 2.631868 -34.79446 1.075435 1.604367 -1.000001 0.0 0.0 
